<?xml version="1.0" standalone="no"?>
<!DOCTYPE svg PUBLIC "-//W3C//DTD SVG 20010904//EN"
 "http://www.w3.org/TR/2001/REC-SVG-20010904/DTD/svg10.dtd">
<svg version="1.0" xmlns="http://www.w3.org/2000/svg"
 width="396.000000pt" height="152.000000pt" viewBox="0 0 396.000000 152.000000"
 preserveAspectRatio="xMidYMid meet">
<metadata>
Created by potrace 1.16, written by Peter Selinger 2001-2019
</metadata>
<g transform="translate(0.000000,152.000000) scale(0.100000,-0.100000)"
fill="#000000" stroke="none">
<path d="M0 760 l0 -760 1980 0 1980 0 0 760 0 760 -1980 0 -1980 0 0 -760z
m821 593 c6 -16 13 -45 16 -65 3 -21 9 -35 13 -33 5 3 10 1 12 -5 1 -5 20 7
41 26 32 31 46 37 97 41 69 7 87 -10 51 -48 -21 -23 -28 -79 -15 -113 8 -20
24 -21 24 -1 0 18 60 35 127 35 42 0 55 -4 67 -22 14 -20 14 -24 -1 -40 -9
-10 -22 -18 -29 -18 -7 0 -18 -18 -24 -40 -6 -21 -16 -42 -22 -46 -18 -11 20
-22 78 -23 27 -1 55 4 61 10 24 24 44 2 41 -43 l-3 -43 -55 0 c-30 0 -60 -3
-66 -7 -7 -5 -10 -41 -7 -108 3 -65 1 -106 -6 -114 -8 -10 -8 -21 -1 -42 6
-16 9 -43 5 -61 -6 -33 -6 -33 57 -47 18 -4 25 -12 24 -23 -2 -15 -15 -19 -69
-21 -64 -3 -67 -4 -67 -28 0 -14 4 -33 9 -43 12 -22 -16 -111 -35 -111 -7 0
-33 14 -57 30 -29 19 -58 30 -80 30 -32 0 -36 -3 -43 -32 -4 -18 -6 -50 -5
-70 l3 -38 -44 0 c-32 0 -46 5 -56 20 -7 11 -19 20 -27 20 -9 0 -20 12 -26 27
-55 137 -92 169 -204 176 -70 5 -136 36 -133 62 2 16 -2 19 -22 18 l-25 -3 23
18 c59 46 -31 91 -213 106 -74 6 -106 18 -117 42 -6 13 -15 24 -20 24 -4 0 -8
5 -8 11 0 21 29 39 64 39 19 0 38 5 41 10 6 10 -28 66 -52 85 -7 6 -14 30 -15
55 -3 44 -3 45 27 43 17 -1 53 0 81 3 l52 5 -15 31 c-9 16 -18 59 -21 94 -5
64 -5 64 22 64 14 0 26 -4 26 -10 0 -6 35 -10 84 -10 l84 0 12 38 c6 20 17 48
23 61 9 19 9 25 0 28 -19 7 -16 23 8 42 20 16 24 16 61 -2 21 -11 44 -29 50
-41 6 -11 18 -28 26 -36 15 -14 18 -14 32 0 37 37 60 74 60 96 0 21 5 24 35
24 29 0 37 -5 46 -27z m557 -627 c2 -16 0 -32 -5 -37 -13 -13 -37 35 -29 56 9
25 31 13 34 -19z m-1028 -167 c0 -11 -29 -19 -35 -9 -3 6 -16 5 -31 0 -19 -8
-29 -6 -41 5 -21 22 -9 31 22 17 33 -15 38 -15 32 2 -5 11 0 12 24 3 16 -6 29
-14 29 -18z m48 15 c17 -5 20 -9 11 -20 -8 -10 -15 -11 -30 -1 -34 21 -24 32
19 21z m76 -92 c-6 -4 -16 -16 -22 -27 -6 -11 -12 -14 -12 -7 0 25 -19 11 -31
-25 -10 -32 -13 -35 -19 -18 -6 18 -9 17 -24 -13 -20 -38 -45 -44 -39 -8 3 13
16 29 29 35 13 6 24 15 24 21 0 6 14 16 31 22 23 8 27 13 17 19 -8 6 -1 9 22
9 19 0 30 -4 24 -8z m139 -29 c9 -3 17 -9 17 -14 0 -5 17 -27 38 -48 24 -25
38 -48 37 -64 0 -42 -13 -41 -25 2 -11 43 -25 53 -33 24 -3 -10 -5 -1 -6 20 0
20 -5 37 -10 37 -4 0 -23 14 -41 32 -20 19 -26 28 -14 24 10 -5 27 -11 37 -13z"/>
<path d="M642 1044 c-33 -23 -64 -91 -64 -140 0 -52 26 -93 80 -125 63 -38 82
-60 82 -95 0 -18 -3 -39 -6 -48 -10 -25 -33 -18 -39 12 -4 15 -10 34 -14 42
-9 17 -88 27 -103 12 -10 -10 32 -112 53 -128 27 -22 104 -34 142 -23 48 13
70 47 69 105 -2 59 -18 84 -91 133 -32 22 -61 47 -65 56 -16 44 4 125 31 125
11 0 14 -14 11 -60 -2 -46 1 -63 12 -70 21 -14 80 -24 88 -16 7 8 4 130 -4
158 -5 17 -86 60 -135 71 -15 4 -34 1 -47 -9z"/>
<path d="M903 908 c-5 -7 -6 -78 -3 -160 6 -164 13 -182 78 -194 31 -6 39 -3
59 20 21 25 23 26 23 6 0 -23 40 -43 78 -38 l24 3 2 182 1 182 -33 6 c-66 12
-72 4 -65 -85 6 -75 4 -83 -26 -145 -18 -36 -37 -65 -42 -65 -7 0 -10 50 -8
142 l3 142 -24 7 c-39 11 -57 10 -67 -3z"/>
</g>
</svg>
