<?xml version="1.0" standalone="no"?>
<!DOCTYPE svg PUBLIC "-//W3C//DTD SVG 20010904//EN"
 "http://www.w3.org/TR/2001/REC-SVG-20010904/DTD/svg10.dtd">
<svg version="1.0" xmlns="http://www.w3.org/2000/svg"
 width="1024.000000pt" height="1024.000000pt" viewBox="0 0 1024.000000 1024.000000"
 preserveAspectRatio="xMidYMid meet">
<metadata>
Created by potrace 1.16, written by Peter Selinger 2001-2019
</metadata>
<g transform="translate(0.000000,1024.000000) scale(0.100000,-0.100000)"
fill="#000000" stroke="none">
<path d="M0 5120 l0 -5120 5120 0 5120 0 0 5120 0 5120 -5120 0 -5120 0 0
-5120z m5982 4833 c32 -32 58 -61 58 -65 0 -4 16 -30 35 -57 38 -53 112 -212
141 -303 10 -32 21 -58 25 -58 4 0 5 -8 3 -17 -3 -10 4 -56 14 -103 11 -47 28
-130 37 -185 10 -55 20 -107 23 -115 3 -8 4 -18 4 -23 -3 -11 27 -194 35 -213
5 -13 8 -13 15 -2 6 9 7 6 3 -9 -4 -16 2 -35 22 -62 24 -34 33 -40 63 -39 40
1 90 23 90 40 0 6 3 9 6 5 18 -17 151 104 344 313 63 69 117 125 121 125 6 0
93 74 156 133 19 17 39 32 44 32 5 0 9 5 9 10 0 6 7 10 15 10 7 0 19 8 24 18
6 10 11 12 11 4 0 -7 5 -10 10 -7 6 4 8 11 5 16 -3 5 0 6 8 3 8 -3 18 0 23 7
5 8 3 10 -6 4 -9 -5 -11 -4 -6 4 4 6 11 9 16 6 5 -3 31 6 57 20 26 13 80 37
118 51 39 15 72 29 75 33 3 3 12 7 20 8 8 0 48 8 88 17 94 20 142 21 142 1 0
-8 -13 -21 -29 -29 -71 -37 -164 -192 -165 -276 -1 -26 -4 -43 -8 -37 -18 28
-6 -276 17 -450 14 -100 25 -202 25 -228 0 -25 4 -44 8 -41 19 12 -25 -268
-53 -338 -7 -17 -4 -18 36 -11 24 4 47 12 51 18 4 6 10 8 14 4 4 -4 13 -2 21
4 7 6 13 8 13 4 0 -4 6 -3 13 2 6 6 32 13 56 17 23 4 93 33 155 64 144 75 166
90 159 108 -3 8 0 14 6 14 6 0 11 -4 11 -10 0 -5 13 -2 29 8 16 9 27 20 25 24
-3 4 5 7 18 6 22 -2 119 48 126 64 2 4 12 8 23 8 10 0 19 5 19 11 0 5 5 7 10
4 8 -5 72 14 240 72 32 12 71 14 235 17 94 2 175 0 180 -4 6 -3 36 -13 68 -20
32 -7 62 -21 67 -29 7 -14 1 -16 -40 -17 -33 0 -61 -9 -96 -30 -27 -16 -56
-32 -64 -35 -8 -3 -13 -8 -10 -10 3 -2 -16 -23 -41 -46 -70 -65 -160 -226
-151 -270 2 -7 -1 -13 -6 -13 -5 0 -28 -57 -51 -127 -65 -197 -77 -231 -116
-326 -20 -48 -33 -92 -29 -99 4 -6 3 -8 -4 -4 -9 5 -25 -23 -25 -44 0 -3 -7
-10 -16 -17 -13 -10 -13 -12 -2 -13 16 0 5 -15 -11 -15 -12 0 -58 -80 -58
-102 0 -9 -3 -13 -7 -10 -3 4 -12 2 -20 -4 -27 -23 -13 -30 45 -24 98 10 123
16 117 26 -4 5 -1 9 4 9 6 0 11 -4 11 -10 0 -5 9 -10 20 -10 11 0 20 5 20 10
0 6 7 10 15 10 8 0 15 -4 15 -10 0 -5 14 -10 31 -10 17 0 28 4 24 10 -3 6 -2
10 3 10 6 0 12 -6 15 -13 5 -14 233 -41 275 -33 12 3 22 0 22 -5 0 -6 9 -7 20
-4 11 3 20 2 20 -3 0 -5 10 -10 23 -10 24 -1 44 -6 67 -15 63 -27 200 -49 327
-54 128 -5 143 -4 149 12 5 11 9 13 14 5 10 -16 74 2 166 47 79 37 100 55 88
74 -4 8 -3 9 4 5 7 -4 12 -3 12 2 0 6 6 12 14 15 11 4 13 -6 12 -46 0 -29 -3
-54 -7 -57 -3 -3 -13 -27 -24 -55 -10 -27 -30 -77 -45 -110 -15 -33 -32 -72
-38 -87 -6 -15 -40 -71 -76 -125 -65 -99 -258 -306 -297 -318 -10 -4 -17 -10
-15 -14 3 -4 -1 -8 -8 -8 -7 0 -32 -13 -57 -30 -24 -17 -87 -52 -139 -78 -52
-26 -98 -53 -102 -59 -4 -6 -8 -8 -8 -4 0 7 -92 -26 -210 -76 -47 -19 -93 -36
-102 -36 -10 0 -18 -4 -18 -8 0 -9 116 -44 147 -44 13 0 23 -4 23 -9 0 -10 40
-24 59 -20 7 1 10 -2 7 -7 -3 -5 34 -28 82 -50 94 -45 185 -98 271 -159 29
-21 64 -45 76 -53 94 -62 329 -297 369 -369 6 -11 30 -48 54 -82 53 -75 51
-96 -8 -68 -22 11 -62 24 -88 29 -67 12 -213 12 -229 -1 -7 -6 -19 -9 -28 -6
-33 13 -418 -106 -436 -134 -3 -6 -13 -7 -21 -4 -18 7 -216 -51 -238 -70 -10
-9 -68 -16 -182 -21 l-167 -7 57 -40 c31 -22 81 -62 110 -91 71 -68 261 -308
287 -360 9 -18 40 -66 201 -305 17 -25 70 -85 118 -132 90 -90 188 -150 248
-151 16 -1 31 -4 33 -9 7 -10 -5 -39 -17 -39 -5 0 -7 4 -3 10 3 5 -19 -2 -49
-16 -50 -23 -232 -64 -283 -64 -14 0 -23 -6 -23 -15 0 -8 -5 -15 -11 -15 -5 0
-8 3 -5 8 2 4 -82 7 -187 7 -144 0 -214 5 -280 18 -49 10 -97 15 -108 12 -11
-4 -19 -2 -19 4 0 6 -7 11 -15 11 -8 0 -54 14 -103 31 -200 71 -228 80 -244
75 -11 -2 -18 1 -18 10 0 8 -2 14 -5 14 -2 0 -28 9 -57 20 l-53 21 53 -51 c30
-29 52 -54 49 -57 -3 -2 12 -28 33 -56 37 -48 117 -201 145 -277 19 -51 63
-215 76 -285 15 -75 13 -375 -2 -375 -4 0 -9 -17 -13 -38 -11 -72 -64 -213
-87 -235 l-22 -21 6 23 c8 32 -16 92 -63 156 -37 50 -93 93 -113 87 -5 -1 -6
1 -3 6 9 16 -83 51 -226 88 -92 23 -144 32 -146 25 -5 -15 -23 -14 -20 1 2 9
-32 21 -97 36 -55 13 -112 30 -127 38 -16 8 -28 12 -28 7 0 -4 -4 -3 -8 3 -4
6 -36 26 -72 44 -36 18 -84 46 -107 62 -25 16 -43 24 -43 17 0 -7 -3 -9 -7 -5
-5 4 -8 12 -8 18 0 6 -17 22 -37 35 -21 13 -38 22 -38 19 0 -31 -36 -191 -58
-256 -16 -47 -27 -91 -25 -97 3 -7 0 -13 -6 -13 -6 0 -11 -4 -11 -10 0 -5 -14
-32 -30 -60 -17 -28 -27 -56 -24 -62 4 -7 2 -8 -4 -4 -7 4 -12 1 -12 -8 0 -23
-2 -28 -28 -55 -45 -48 -149 -272 -161 -347 -17 -99 13 -219 60 -245 11 -5 19
-15 19 -21 0 -19 32 -48 52 -48 10 0 18 -7 18 -15 0 -12 -10 -14 -57 -9 -32 3
-84 13 -117 21 -32 8 -65 12 -72 9 -8 -3 -14 -1 -14 5 0 6 -4 7 -10 4 -5 -3
-10 -2 -10 2 0 14 -90 54 -102 47 -7 -4 -8 -2 -4 4 4 7 -7 18 -31 29 -21 10
-65 37 -99 60 -34 23 -65 39 -70 35 -5 -4 -6 -3 -1 2 4 5 -4 17 -17 25 -24 17
-69 54 -181 154 -35 31 -68 57 -72 57 -5 0 -19 16 -32 35 -13 20 -34 38 -47
41 -13 3 -21 10 -19 15 7 11 -112 129 -130 129 -7 0 -15 13 -18 29 -4 19 -16
33 -36 42 -16 7 -28 16 -25 20 2 4 -5 18 -16 30 l-19 24 4 -120 c2 -66 2 -111
-1 -100 -3 11 -13 54 -24 95 -18 76 -44 153 -74 223 -9 20 -13 37 -9 37 5 0 3
4 -3 8 -6 4 -26 34 -44 67 -172 314 -497 566 -855 663 -90 24 -126 31 -262 51
-167 25 -407 3 -568 -51 -52 -18 -165 -71 -164 -77 0 -3 42 -26 94 -51 52 -25
97 -51 100 -58 3 -7 9 -10 15 -7 5 3 10 1 10 -5 0 -6 4 -9 9 -6 4 3 23 -8 41
-24 19 -17 37 -30 42 -30 8 0 21 -9 53 -38 8 -7 15 -10 15 -6 0 4 6 0 13 -10
12 -16 19 -17 48 -8 50 16 345 8 474 -13 11 -2 20 -4 20 -5 0 -2 30 -8 70 -14
17 -3 50 -10 75 -17 25 -6 52 -13 60 -14 31 -5 76 -17 115 -32 22 -8 40 -14
40 -13 0 2 15 -1 33 -4 17 -4 32 -12 32 -17 0 -9 -16 -7 -95 13 -22 6 -56 12
-75 14 -19 2 -53 6 -75 9 -94 12 -363 18 -440 10 -16 -2 -46 -4 -65 -4 -19 -1
-42 -6 -50 -11 -13 -9 -10 -14 15 -35 17 -14 34 -25 39 -25 5 0 20 -12 34 -27
14 -16 26 -26 27 -23 2 5 51 -38 97 -84 15 -15 28 -25 28 -21 0 3 7 -1 16 -9
8 -9 23 -17 32 -18 18 -1 34 -4 42 -8 3 -1 16 -4 30 -6 27 -4 62 -11 70 -14 3
-1 9 -2 14 -1 4 1 25 -4 45 -11 37 -12 42 -14 77 -21 11 -3 38 -13 60 -22 21
-9 44 -18 49 -19 13 -4 64 -23 90 -36 110 -50 169 -77 220 -101 33 -15 63 -27
66 -26 4 1 15 -5 25 -14 11 -9 26 -19 34 -22 8 -3 4 -5 -10 -3 -14 1 -43 10
-65 20 -22 9 -42 17 -45 17 -3 1 -21 8 -40 16 -36 15 -66 24 -87 25 -7 1 -13
4 -13 8 0 4 -6 7 -12 8 -33 3 -66 10 -75 15 -6 4 -28 10 -49 13 -67 10 -79 12
-79 14 0 2 -13 4 -30 5 -16 2 -30 4 -30 5 0 4 -43 12 -72 13 -18 0 -33 4 -33
9 0 5 -4 7 -9 4 -4 -3 -22 -1 -40 4 -17 5 -31 6 -31 4 0 -3 36 -40 80 -83 44
-43 80 -83 80 -89 0 -6 9 -14 20 -17 11 -4 18 -10 15 -15 -3 -5 4 -14 15 -20
11 -6 18 -14 16 -19 -3 -4 4 -14 15 -21 10 -8 19 -20 19 -28 0 -7 7 -15 15
-18 8 -4 15 -11 15 -18 0 -6 9 -18 20 -26 11 -8 20 -20 20 -27 0 -7 4 -13 8
-13 4 0 16 -15 27 -32 19 -32 28 -45 52 -72 32 -36 157 -241 156 -256 0 -3 8
-16 18 -29 10 -13 17 -27 14 -31 -3 -4 2 -13 10 -20 8 -7 15 -17 15 -22 0 -6
11 -36 24 -67 57 -134 75 -181 69 -181 -3 0 0 -6 6 -13 6 -8 8 -17 4 -20 -3
-4 -1 -7 5 -7 6 0 9 -9 7 -20 -2 -11 0 -20 6 -20 5 0 8 -3 7 -8 -1 -4 5 -27
12 -52 7 -25 13 -48 12 -52 -1 -5 2 -8 8 -8 6 0 9 -3 8 -7 -2 -10 13 -64 21
-78 3 -5 7 -19 8 -30 3 -18 1 -17 -17 5 -11 14 -20 30 -20 36 0 7 -9 31 -19
55 -11 24 -17 47 -15 51 3 4 0 8 -7 8 -7 0 -10 3 -6 6 3 3 -8 34 -25 68 -16
33 -44 90 -61 126 -17 36 -38 73 -46 83 -8 9 -10 17 -5 17 5 0 5 4 -1 8 -5 4
-21 27 -34 52 -14 25 -27 47 -30 50 -11 9 -31 44 -42 73 -6 15 -14 27 -18 27
-8 0 -51 72 -48 80 1 3 -13 20 -30 39 -18 18 -35 43 -39 54 -6 20 -14 31 -42
62 -7 8 -11 15 -7 15 3 0 0 6 -7 14 -7 8 -15 12 -17 10 -2 -2 -6 -56 -7 -120
-2 -65 -6 -119 -9 -122 -8 -8 -4 231 4 252 7 18 8 18 30 -5 56 -59 270 -400
360 -574 29 -55 49 -91 46 -80 -4 11 -16 47 -27 80 -11 33 -23 65 -28 70 -4 6
-11 21 -15 35 -10 32 -92 200 -130 265 -40 68 -149 227 -204 299 -25 32 -65
84 -89 115 -23 31 -88 102 -144 158 -119 120 -123 137 -26 117 34 -8 101 -21
148 -29 79 -14 182 -35 240 -50 20 -5 19 -3 -5 8 -176 83 -285 118 -515 166
-38 8 -67 22 -95 47 -80 70 -224 184 -233 184 -6 0 -9 8 -7 17 2 10 4 21 4 24
2 17 186 31 350 27 163 -4 171 -3 111 9 -198 38 -259 44 -432 42 l-176 -2 -99
65 c-150 99 -297 178 -333 178 -9 0 -21 5 -28 12 -7 7 -12 8 -12 4 0 -5 -7 -3
-15 4 -8 7 -15 9 -15 5 0 -4 -7 -2 -15 5 -8 7 -30 21 -48 30 -17 10 -31 25
-31 33 2 17 -110 75 -236 122 -95 36 -114 49 -142 94 -55 90 -159 228 -233
310 -103 113 -315 312 -315 296 0 -5 118 -151 218 -270 10 -11 56 -69 102
-130 153 -197 155 -208 33 -160 -47 19 -120 44 -162 56 -42 12 -95 30 -117 40
-23 10 -52 21 -65 24 -14 4 -39 29 -59 58 -55 82 -165 215 -246 299 -41 42
-74 79 -74 82 0 2 11 -1 25 -7 14 -7 25 -17 25 -23 0 -6 19 -29 43 -51 57 -56
117 -122 117 -131 0 -4 11 -16 25 -26 14 -10 25 -25 25 -32 0 -8 5 -14 10 -14
6 0 10 -5 10 -11 0 -6 6 -16 13 -23 6 -8 19 -24 27 -36 8 -12 21 -28 27 -36 7
-7 13 -17 13 -23 0 -6 7 -8 15 -5 8 4 15 1 15 -7 0 -7 3 -9 7 -6 3 4 17 0 30
-8 13 -9 23 -13 23 -10 0 3 16 -1 35 -9 19 -8 35 -12 35 -8 0 4 4 2 8 -5 4 -6
21 -13 38 -16 17 -3 40 -10 51 -16 11 -5 23 -7 27 -4 3 3 6 1 6 -5 0 -7 11
-12 24 -12 14 0 28 -5 31 -10 4 -6 11 -8 16 -5 5 4 9 1 9 -5 0 -6 5 -8 11 -4
6 3 15 1 19 -6 4 -7 13 -11 20 -8 9 3 8 9 -4 21 -10 9 -14 17 -9 17 4 0 3 4
-2 8 -20 14 -95 110 -95 121 0 6 -4 11 -10 11 -5 0 -10 5 -10 11 0 7 -11 22
-25 35 -14 13 -25 28 -25 34 0 5 -4 10 -9 10 -6 0 -31 28 -58 62 -26 35 -51
65 -55 66 -4 2 -8 8 -8 13 0 5 -8 17 -17 27 -19 19 -77 86 -103 118 -9 11 -16
23 -17 27 -1 4 -8 14 -15 21 -28 30 -48 57 -48 65 0 5 -7 11 -14 14 -8 3 -22
20 -31 36 -25 50 2 28 95 -74 47 -51 90 -94 97 -94 7 -1 16 -7 20 -14 4 -7 19
-21 33 -30 13 -9 21 -17 16 -17 -5 0 9 -13 30 -29 22 -15 48 -40 57 -55 11
-16 23 -24 30 -20 7 4 9 4 5 -1 -4 -4 27 -41 68 -81 42 -41 72 -74 68 -74 -4
0 1 -7 12 -15 10 -8 15 -15 11 -15 -4 0 2 -10 15 -22 25 -25 68 -84 68 -93 0
-6 11 -20 38 -50 7 -8 11 -15 7 -15 -3 0 3 -9 14 -21 11 -12 24 -33 30 -48 7
-14 24 -32 39 -38 43 -18 97 -40 102 -41 3 0 22 -8 42 -16 21 -9 42 -16 49
-16 6 0 24 -9 40 -21 16 -11 29 -17 29 -14 0 4 11 0 25 -9 28 -18 50 -13 41
10 -3 8 -2 14 2 14 4 0 9 82 10 183 4 201 -7 285 -55 412 -71 188 -233 364
-423 460 -67 34 -180 77 -180 69 0 -4 -6 -2 -12 4 -15 11 -120 37 -191 47 -37
5 -47 10 -43 21 4 9 -4 19 -19 26 -14 6 -25 16 -25 22 0 6 -5 4 -10 -4 -8 -13
-10 -13 -10 2 0 21 -109 58 -182 63 -26 2 -52 6 -58 10 -6 4 -14 4 -17 1 -3
-3 -12 -1 -19 5 -8 6 -29 11 -49 12 -19 1 -35 4 -35 8 0 10 -139 41 -151 33
-7 -4 -9 -3 -6 3 4 6 -13 16 -41 23 -26 6 -73 20 -104 30 -31 10 -59 16 -62
12 -3 -3 -6 0 -6 6 0 6 -36 25 -81 42 -83 32 -239 128 -296 182 -19 19 -36 27
-44 23 -7 -5 -10 -4 -6 2 4 6 -20 41 -53 77 -60 66 -78 106 -42 91 45 -19 120
-35 152 -33 20 1 40 -1 45 -4 15 -9 169 10 173 21 2 6 10 7 18 4 8 -3 26 -2
41 2 22 5 24 8 12 17 -10 7 -8 8 11 4 26 -6 160 49 160 66 0 5 5 6 10 3 10 -6
85 32 112 58 8 6 38 24 68 40 30 15 79 45 109 68 29 22 55 38 58 36 2 -3 40
15 84 39 44 24 85 44 92 44 6 0 3 7 -8 16 -11 8 -25 12 -33 9 -7 -2 -10 0 -7
5 6 10 -67 49 -93 50 -7 0 -21 8 -32 18 -10 9 -45 30 -77 45 -65 32 -57 27
-142 84 -35 24 -69 40 -75 36 -6 -3 -8 -3 -4 1 3 4 -30 38 -75 74 -108 87
-307 290 -307 311 0 4 -21 36 -46 72 -25 35 -51 78 -58 94 -7 17 -31 62 -53
100 -38 67 -73 188 -59 202 4 4 23 -10 44 -31 48 -50 107 -87 146 -93 17 -2
63 -9 102 -15 39 -6 80 -8 90 -4 10 4 43 10 73 12 68 5 172 34 165 45 -3 5 1
6 9 3 7 -2 36 5 63 16 53 23 361 125 407 135 16 3 27 12 28 23 1 15 2 14 6 -2
4 -16 12 -18 61 -12 32 3 99 9 151 13 l94 6 -29 27 c-38 35 -106 117 -129 157
-10 18 -23 29 -28 26 -6 -3 -7 -1 -3 6 4 6 -5 24 -22 40 -16 16 -33 44 -39 63
-5 18 -15 32 -22 30 -6 -1 -11 3 -9 10 5 23 -24 79 -38 74 -8 -3 -11 0 -8 9 3
8 -1 22 -10 30 -9 9 -16 28 -16 43 0 30 -48 153 -64 164 -6 4 -7 10 -4 13 4 4
2 18 -3 32 -31 83 -84 443 -64 443 4 0 27 -14 52 -30 77 -52 126 -73 198 -86
39 -7 99 -18 135 -24 70 -13 336 -6 355 10 14 11 415 11 415 -1 0 -5 9 -9 21
-9 14 0 18 4 12 13 -4 6 5 4 20 -5 14 -10 33 -18 40 -18 20 0 248 -68 269 -80
10 -6 19 -10 21 -10 2 0 4 35 4 78 1 81 14 150 57 296 14 49 23 93 20 97 -3 5
0 9 5 9 6 0 10 3 9 8 -1 4 11 34 26 67 15 33 39 94 52 135 13 41 33 93 43 115
28 60 64 183 58 199 -3 7 -1 18 4 23 21 21 32 218 14 258 -11 27 -12 31 -14
61 -1 17 -8 28 -22 31 -16 4 -17 8 -7 14 10 7 8 9 -7 9 -19 1 -19 1 -2 11 25
14 77 -4 134 -48 25 -19 61 -44 80 -54 44 -25 112 -82 211 -179 42 -41 81 -73
85 -72 5 1 6 -1 3 -6 -3 -5 3 -18 12 -28 10 -10 28 -35 41 -54 13 -19 34 -46
47 -60 23 -25 111 -173 147 -245 31 -63 98 -165 109 -165 5 0 7 -4 3 -10 -9
-15 128 -161 140 -149 2 2 5 13 7 24 1 11 7 23 11 26 4 3 9 15 10 27 0 11 4
19 7 17 3 -2 23 31 45 73 22 42 49 88 60 101 11 13 14 21 8 17 -9 -5 -11 -2
-7 8 3 9 11 14 17 13 6 -1 25 27 44 61 18 35 33 61 33 58 0 -3 16 11 35 33 19
21 35 42 35 46 0 4 23 32 50 63 28 31 49 61 47 67 -2 5 5 14 16 20 27 14 137
157 129 170 -3 5 -2 7 3 3 9 -9 28 15 85 111 59 99 108 270 84 294 -8 8 -13
77 -5 77 3 0 31 -26 63 -57z m1655 -980 c-3 -10 -5 -2 -5 17 0 19 2 27 5 18 2
-10 2 -26 0 -35z m-1127 -247 c0 -3 -4 -8 -10 -11 -5 -3 -10 -1 -10 4 0 6 5
11 10 11 6 0 10 -2 10 -4z m-3870 -1302 c0 -2 -7 -4 -15 -4 -8 0 -15 4 -15 10
0 5 7 7 15 4 8 -4 15 -8 15 -10z m5903 -81 c-7 -2 -19 -2 -25 0 -7 3 -2 5 12
5 14 0 19 -2 13 -5z m977 -109 c0 -2 -9 -4 -20 -4 -11 0 -20 4 -20 9 0 5 9 7
20 4 11 -3 20 -7 20 -9z m-210 -784 c0 -5 -5 -10 -11 -10 -5 0 -7 5 -4 10 3 6
8 10 11 10 2 0 4 -4 4 -10z m-7146 -1616 c7 -19 2 -18 -19 6 -16 17 -16 20 -3
15 9 -4 19 -13 22 -21z m31 -13 c3 -5 2 -12 -3 -15 -5 -3 -9 1 -9 9 0 17 3 19
12 6z m75 -55 c0 -3 -4 -8 -10 -11 -5 -3 -10 -1 -10 4 0 6 5 11 10 11 6 0 10
-2 10 -4z m-580 -26 c0 -5 -6 -12 -12 -16 -7 -4 -10 -4 -6 1 4 4 3 14 -4 22
-8 11 -7 12 6 7 9 -3 16 -10 16 -14z m55 -30 c3 -6 -1 -7 -9 -4 -18 7 -21 14
-7 14 6 0 13 -4 16 -10z m556 -50 c60 -76 199 -279 199 -290 0 -15 -26 -12
-105 9 -39 10 -124 31 -190 46 -66 15 -124 31 -128 35 -10 8 30 5 63 -5 23 -7
33 -9 115 -21 28 -3 52 -9 55 -13 3 -3 10 -7 16 -8 61 -11 97 -20 128 -32 38
-15 40 -10 10 22 -14 15 -21 27 -17 27 4 0 0 5 -9 11 -10 5 -18 14 -18 20 0 9
-8 21 -38 54 -7 8 -11 15 -7 15 6 0 -9 20 -39 50 -11 11 -16 20 -12 20 4 0 -5
12 -19 27 -14 15 -25 32 -25 36 0 5 -7 15 -15 23 -8 9 -15 21 -15 27 0 12 0
12 51 -53z m-1304 24 c-3 -3 -12 -4 -19 -1 -8 3 -5 6 6 6 11 1 17 -2 13 -5z
m58 -4 c3 -5 1 -10 -4 -10 -6 0 -11 5 -11 10 0 6 2 10 4 10 3 0 8 -4 11 -10z
m710 -28 c-3 -3 -11 0 -18 7 -9 10 -8 11 6 5 10 -3 15 -9 12 -12z m171 -84
l19 -21 -27 18 c-29 18 -34 25 -20 25 5 0 17 -10 28 -22z m-506 -2 c0 -3 -4
-8 -10 -11 -5 -3 -10 -1 -10 4 0 6 5 11 10 11 6 0 10 -2 10 -4z m315 -16 c3
-6 -1 -7 -9 -4 -18 7 -21 14 -7 14 6 0 13 -4 16 -10z m130 -30 c13 -5 14 -9 5
-9 -8 0 -24 4 -35 9 -13 5 -14 9 -5 9 8 0 24 -4 35 -9z m150 -40 c3 -5 1 -10
-4 -10 -6 0 -11 5 -11 10 0 6 2 10 4 10 3 0 8 -4 11 -10z m68 -97 c26 -9 47
-21 47 -25 0 -13 -60 -36 -112 -44 -45 -7 -50 3 -4 12 14 2 37 9 51 14 22 8
24 12 13 24 -7 8 -16 12 -19 10 -3 -2 -15 3 -25 11 -26 19 -9 19 49 -2z m-693
-73 c0 -5 -2 -10 -4 -10 -3 0 -8 5 -11 10 -3 6 -1 10 4 10 6 0 11 -4 11 -10z
m1025 -24 c226 -65 305 -93 305 -110 0 -11 -60 -42 -177 -92 -60 -26 -33 1 30
30 144 66 148 70 72 82 -25 3 -45 11 -45 16 0 6 -7 8 -15 4 -8 -3 -15 -2 -15
2 0 8 -139 48 -152 44 -5 -1 -8 2 -8 6 0 5 -6 9 -12 9 -7 0 -29 4 -48 8 -19 4
-41 8 -47 8 -7 0 -13 4 -13 9 0 10 -41 4 -69 -12 -12 -6 -21 -8 -21 -5 0 3 -9
1 -21 -5 -11 -7 -33 -13 -47 -15 -15 -3 -38 -7 -52 -10 -71 -15 -90 -16 -105
-7 -13 7 0 11 49 16 36 4 79 12 94 18 15 6 31 10 35 9 4 -1 27 5 50 13 60 21
78 20 212 -18z m-861 -4 c3 -5 -8 -6 -25 -4 -16 2 -29 6 -29 8 0 8 49 4 54 -4z
m199 1 c-7 -2 -19 -2 -25 0 -7 3 -2 5 12 5 14 0 19 -2 13 -5z m17 -27 c0 -2
-11 -6 -25 -8 -13 -3 -22 -1 -19 3 5 9 44 13 44 5z m1169 -147 c30 -11 60 -18
68 -15 8 3 12 2 9 -3 -3 -4 14 -14 37 -22 40 -13 41 -13 13 -17 -16 -2 -32 0
-35 5 -3 4 -15 9 -26 11 -11 1 -29 7 -40 12 -59 27 -95 38 -100 30 -3 -4 -23
-11 -45 -15 -22 -4 -40 -11 -40 -16 0 -5 -11 -9 -25 -9 -14 0 -25 -4 -25 -8 0
-5 -6 -9 -12 -10 -7 0 -31 -5 -53 -11 -87 -23 -64 -8 54 34 68 25 125 46 127
48 9 9 43 4 93 -14z m-439 -38 c0 -5 -14 -14 -30 -20 -21 -7 -29 -7 -24 0 5 8
33 24 52 28 1 1 2 -3 2 -8z m720 -76 c97 -49 239 -115 247 -115 19 -1 43 -29
37 -43 -3 -9 -51 -41 -106 -72 -55 -31 -105 -60 -111 -66 -31 -27 -193 -136
-196 -133 -5 5 62 63 70 61 3 -1 13 5 22 13 34 31 47 41 47 34 0 -4 9 3 20 16
11 13 20 20 20 17 0 -3 12 5 26 18 15 14 33 25 40 25 8 0 14 5 14 10 0 6 9 10
20 10 11 0 20 5 20 10 0 5 3 9 8 8 4 -2 26 9 50 23 32 20 40 28 30 36 -11 9
-152 78 -198 97 -8 3 -22 10 -30 15 -8 5 -31 17 -50 26 -46 22 -79 40 -88 50
-12 13 41 -7 108 -40z m-830 31 c0 -2 -7 -7 -16 -10 -8 -3 -12 -2 -9 4 6 10
25 14 25 6z m-45 -16 c-3 -5 -12 -10 -18 -10 -7 0 -6 4 3 10 19 12 23 12 15 0z
m-120 -58 c-6 -7 -45 9 -45 18 0 4 11 3 24 -3 14 -7 23 -13 21 -15z m142 22
c-3 -3 -12 -4 -19 -1 -8 3 -5 6 6 6 11 1 17 -2 13 -5z m-284 -31 c-7 -2 -19
-2 -25 0 -7 3 -2 5 12 5 14 0 19 -2 13 -5z m1602 -193 c11 -4 40 -15 65 -25
78 -30 147 -65 222 -114 40 -26 83 -53 96 -60 20 -11 22 -19 22 -96 0 -48 -4
-87 -11 -90 -7 -5 -9 18 -6 73 3 43 2 84 -1 89 -4 6 -37 27 -74 48 -38 20 -68
41 -68 47 0 5 -4 7 -9 3 -6 -3 -14 3 -20 12 -5 10 -11 16 -13 14 -2 -3 -30 8
-62 23 -33 16 -89 39 -125 53 -59 22 -70 23 -111 12 -25 -7 -49 -15 -55 -19
-5 -4 -26 -13 -45 -20 -19 -7 -51 -25 -70 -39 -19 -14 -38 -25 -42 -24 -4 2
-5 -4 -2 -12 4 -8 1 -15 -6 -15 -6 0 -9 -4 -6 -8 3 -5 1 -24 -4 -43 -5 -19
-12 -54 -14 -79 -9 -75 -24 -159 -32 -172 -6 -9 -15 -47 -16 -65 -1 -7 -5 -13
-10 -13 -4 0 -7 -3 -7 -7 1 -5 0 -11 -1 -15 -1 -5 -3 -11 -4 -15 -1 -5 -7 -17
-13 -28 -6 -11 -12 -24 -13 -30 -8 -34 -31 -87 -68 -150 -32 -55 -18 -9 25 84
67 143 115 318 138 500 9 65 35 96 120 135 129 61 164 68 220 46z m-610 -199
c-3 -6 -14 -11 -23 -11 -9 0 -62 -11 -117 -24 -93 -23 -98 -23 -76 -5 12 10
27 16 32 13 5 -2 30 2 56 11 27 9 62 18 80 19 17 1 35 5 39 9 10 10 17 1 9
-12z m190 -73 c-11 -142 -45 -312 -87 -433 -20 -59 -42 -97 -33 -59 2 10 6 29
9 42 3 12 8 27 11 32 3 5 8 18 10 27 3 10 9 38 16 63 6 25 12 52 14 60 2 8 4
15 5 15 1 0 3 7 5 15 2 8 6 29 10 45 4 17 7 46 7 65 0 19 4 40 10 47 5 7 7 16
4 22 -3 5 -2 36 2 69 l9 61 -29 -15 c-16 -8 -32 -22 -35 -30 -3 -7 -9 -14 -13
-14 -8 0 -38 -27 -154 -137 -36 -35 -68 -63 -71 -63 -3 0 -26 -19 -50 -42 -44
-42 -52 -63 -60 -148 -1 -14 -4 -32 -8 -40 -3 -8 -6 -22 -6 -30 -1 -29 -9 -95
-11 -95 -1 0 -3 -11 -4 -25 -5 -59 -72 -254 -94 -272 -13 -11 -14 -9 -9 17 4
17 9 53 13 80 3 28 8 61 10 75 10 58 15 110 18 187 2 45 7 87 12 94 4 8 3 10
-4 5 -7 -4 -12 -2 -12 3 0 6 7 11 16 11 15 0 16 -10 11 -77 -8 -90 -23 -232
-31 -283 -3 -19 5 -1 19 40 23 71 35 127 66 329 15 95 2 78 197 260 127 119
206 181 229 181 12 0 13 -16 8 -82z m-301 -72 c-27 -22 -87 -79 -133 -126 -46
-47 -75 -72 -65 -55 9 16 31 43 48 60 17 17 43 45 57 62 15 18 29 30 32 27 3
-3 12 3 19 15 7 12 18 21 25 21 7 0 13 7 13 15 0 16 -12 20 -23 8 -4 -3 -28
-8 -52 -9 -25 -2 -50 -6 -55 -9 -6 -3 -10 -2 -10 4 0 10 20 15 115 30 78 12
84 3 29 -43z m1334 -28 c53 -40 120 -94 148 -120 l50 -48 18 -182 c10 -101 24
-210 31 -242 10 -43 11 -56 2 -47 -7 7 -13 16 -13 21 -1 6 -2 11 -4 13 -2 2
-3 10 -14 87 -14 92 -17 127 -21 200 -8 138 -13 160 -46 178 -16 10 -29 23
-29 30 0 7 -5 10 -10 7 -6 -3 -13 1 -16 9 -3 9 -11 16 -18 16 -6 0 -18 9 -26
20 -8 11 -20 20 -27 20 -7 0 -13 5 -13 10 0 6 -7 10 -15 10 -9 0 -18 6 -21 14
-3 7 -21 22 -40 32 -19 10 -34 23 -35 29 -1 16 -19 -35 -25 -69 -12 -78 -15
-103 -19 -134 -5 -48 -15 -52 -15 -7 0 89 35 224 58 225 1 0 46 -32 100 -72z
m-1878 -102 c0 -2 -7 -7 -16 -10 -8 -3 -12 -2 -9 4 6 10 25 14 25 6z m1667
-38 c-3 -7 -5 -2 -5 12 0 14 2 19 5 13 2 -7 2 -19 0 -25z m-1707 12 c0 -5 -5
-10 -11 -10 -5 0 -7 5 -4 10 3 6 8 10 11 10 2 0 4 -4 4 -10z m353 -75 c-3 -9
-8 -14 -10 -11 -3 3 -2 9 2 15 9 16 15 13 8 -4z m2013 -199 c132 -135 202
-216 187 -216 -10 1 -40 23 -40 30 0 9 -46 60 -162 178 -94 95 -116 112 -121
97 -8 -22 -3 -362 5 -375 3 -6 2 -10 -3 -10 -18 0 -22 44 -22 231 0 171 3 199
19 199 3 0 65 -60 137 -134z m-609 52 c-2 -13 -4 -3 -4 22 0 25 2 35 4 23 2
-13 2 -33 0 -45z m-17 2 c0 -5 -5 -10 -11 -10 -5 0 -7 5 -4 10 3 6 8 10 11 10
2 0 4 -4 4 -10z m-1430 -14 c0 -2 -8 -10 -17 -17 -16 -13 -17 -12 -4 4 13 16
21 21 21 13z m-123 -22 c-3 -3 -12 -4 -19 -1 -8 3 -5 6 6 6 11 1 17 -2 13 -5z
m1576 -84 c3 -11 1 -23 -4 -26 -5 -3 -9 6 -9 20 0 31 6 34 13 6z m-1623 6 c0
-2 -7 -7 -16 -10 -8 -3 -12 -2 -9 4 6 10 25 14 25 6z m-41 -19 c-2 -1 -13 -9
-24 -17 -19 -14 -19 -14 -6 3 7 9 18 17 24 17 6 0 8 -1 6 -3z m91 -21 c0 -2
-8 -10 -17 -17 -16 -13 -17 -12 -4 4 13 16 21 21 21 13z m542 -18 c-7 -7 -12
-8 -12 -2 0 6 3 14 7 17 3 4 9 5 12 2 2 -3 -1 -11 -7 -17z m-702 -2 c0 -2 -7
-7 -16 -10 -8 -3 -12 -2 -9 4 6 10 25 14 25 6z m4555 -36 c3 -5 1 -10 -4 -10
-6 0 -11 5 -11 10 0 6 2 10 4 10 3 0 8 -4 11 -10z m-4700 -30 c-3 -5 -12 -10
-18 -10 -7 0 -6 4 3 10 19 12 23 12 15 0z m3542 -10 c-1 -22 -17 -28 -17 -7 0
12 9 27 16 27 2 0 2 -9 1 -20z m-3589 -30 c-7 -11 -19 -22 -28 -25 -8 -4 -4 5
9 19 29 31 36 33 19 6z m2727 -97 c4 -54 12 -128 19 -165 11 -56 11 -66 0 -57
-7 6 -13 14 -12 17 1 4 -3 32 -7 62 -5 30 -8 61 -7 67 2 7 -2 22 -8 32 -7 13
-7 22 0 26 6 4 8 10 5 15 -9 15 -14 100 -6 100 5 0 12 -44 16 -97z m-2770 47
c-3 -5 -11 -10 -16 -10 -6 0 -7 5 -4 10 3 6 11 10 16 10 6 0 7 -4 4 -10z
m2432 -62 c-3 -8 -6 -5 -6 6 -1 11 2 17 5 13 3 -3 4 -12 1 -19z m-2273 -73
c-9 -14 -18 -25 -21 -25 -5 0 5 18 20 38 17 22 18 13 1 -13z m2296 -75 c0 -5
-4 -10 -10 -10 -5 0 -10 5 -10 10 0 6 5 10 10 10 6 0 10 -4 10 -10z m-2421
-123 c0 -9 -2 -8 -6 1 -2 6 -10 9 -15 6 -7 -4 -8 -2 -4 5 9 13 26 5 25 -12z
m-19 -28 c0 -5 -4 -8 -9 -5 -5 4 -12 0 -14 -6 -3 -8 -6 -6 -6 5 -1 9 6 17 14
17 8 0 15 -5 15 -11z m2820 -29 c0 -5 -2 -10 -4 -10 -3 0 -8 5 -11 10 -3 6 -1
10 4 10 6 0 11 -4 11 -10z m-2850 -28 c0 -5 -12 -19 -26 -33 l-26 -24 19 32
c17 31 33 43 33 25z m-69 -125 c-10 -9 -11 -8 -5 6 3 10 9 15 12 12 3 -3 0
-11 -7 -18z"/>
</g>
</svg>
